<svg width="1039" height="135" viewBox="0 0 1039 135" fill="none" xmlns="http://www.w3.org/2000/svg">
<path d="M971.1 0L946.5 113.3H926.2L950.8 0H971.1Z" fill="#58595B"/>
<path d="M898.7 93.2L907.5 107.9C904.1 109.8 900.5 111.3 896.7 112.4C892.9 113.5 889.3 114.1 885.9 114.1C878.5 114.1 872.2 112.7 866.9 109.9C861.6 107.1 857.5 103.2 854.8 98.2C852.1 93.2 850.7 87.4 850.7 80.9C850.7 74.9 852.3 69.3 855.4 64.2C858.6 59.1 862.9 55.1 868.3 52.1C873.8 49.1 879.8 47.6 886.3 47.6C895.2 47.6 902.4 50.2 908.2 55.4C913.9 60.6 917.6 68 919.3 77.6L874 92C877 95.5 881.1 97.2 886.3 97.2C890.4 97.2999 894.5 95.9 898.7 93.2ZM874.2 67.6C871.6 70.6 870.2 74.7 870.2 79.8V81.1L897.4 71.9C895.4 66.1 891.2 63.1 884.8 63.1C880.4 63 876.9 64.5 874.2 67.6Z" fill="#58595B"/>
<path d="M825.4 23.4V50.3H840.4V65.7H825.4V112.4H805.6V65.7H796V50.3H805.6V23.4H825.4Z" fill="#58595B"/>
<path d="M779.5 50.6V112.4H759.7V104.8C753.8 111 746.9 114.1 739 114.1C729.9 114.1 722.4 111.4 716.7 105.9C711 100.4 708.1 92.3 708.1 81.6C708.1 74.8 709.5 68.8 712.3 63.7C715.1 58.6 718.8 54.6 723.4 51.7C728 48.9 733 47.5 738.3 47.5C743.8 47.5 748.1 48.3 751.3 50C754.5 51.7 757.3 54 759.8 57L761.1 50.6H779.5ZM759.7 88.6V73.5C758.6 70.5 756.6 68.1 753.8 66.3C751 64.5 747.7 63.6 744 63.6C739.7 63.6 736 65.2 732.9 68.4C729.8 71.6 728.3 75.7 728.3 80.6C728.3 83.8 729.1 86.8 730.6 89.4C732.1 92.1 734.1 94.2 736.6 95.7C739.1 97.2 741.8 98 744.7 98C751.5 98 756.5 94.9 759.7 88.6Z" fill="#58595B"/>
<path d="M687.4 17.7C694.4 24 697.9 32.5 697.9 43.4C697.9 49.6 696.7 55.4 694.3 60.9C691.9 66.3 688 70.8 682.6 74.3C677.2 77.8 670.2 79.5 661.6 79.5H646.9V112.5H626.4V8.29999H657.9C670.5 8.29999 680.4 11.4 687.4 17.7ZM670.7 56.9C673.1 55.2 674.8 53.1 675.8 50.7C676.8 48.3 677.4 46.1 677.4 43.9C677.4 40.2 676.3 36.7 674.1 33.2C671.9 29.8 667.7 28 661.5 28H646.8V59.4H661.4C665.2 59.5 668.3 58.6 670.7 56.9Z" fill="#58595B"/>
<path d="M556.6 0.799988V112.4H536.8V105.9C529.6 111.4 522 114.1 513.9 114.1C508.1 114.1 503 112.7 498.5 110C494 107.3 490.4 103.4 487.8 98.3C485.2 93.2001 483.9 87.2 483.9 80.3C483.9 73.5 485.3 67.6 488.1 62.7C490.9 57.7 494.7 54 499.6 51.4C504.5 48.8 510.1 47.5 516.4 47.5C520.5 47.5 524.3 48.1 527.9 49.4C531.5 50.7 534.5 52.5 537 55V0.799988H556.6ZM530.3 95.1C532.9 93.5 535.1 91.2 536.8 88.1V73C535.7 70 533.6 67.6 530.7 65.8C527.8 64 524.3 63.1 520.4 63.1C516 63.1 512.1 64.7 508.9 67.9C505.6 71.1 504 75.2 504 80.1C504 83.3 504.8 86.3 506.3 88.9C507.8 91.6 509.8 93.7 512.3 95.2C514.8 96.7 517.5 97.5 520.4 97.5C524.4 97.4 527.7 96.6 530.3 95.1Z" fill="#58595B"/>
<path d="M468.4 50.6V112.4H448.6V104.8C442.7 111 435.8 114.1 427.9 114.1C418.8 114.1 411.3 111.4 405.6 105.9C399.9 100.4 397 92.3 397 81.6C397 74.8 398.4 68.8 401.2 63.7C404 58.6 407.7 54.6 412.3 51.7C416.9 48.9 421.9 47.5 427.2 47.5C432.7 47.5 437 48.3 440.2 50C443.4 51.7 446.2 54 448.7 57L450 50.6H468.4ZM448.6 88.6V73.5C447.5 70.5 445.5 68.1 442.7 66.3C439.9 64.5 436.6 63.6 432.9 63.6C428.6 63.6 424.9 65.2 421.8 68.4C418.7 71.6 417.2 75.7 417.2 80.6C417.2 83.8 418 86.8 419.5 89.4C421 92.1 423 94.2 425.5 95.7C428 97.2 430.7 98 433.6 98C440.5 98 445.4 94.9 448.6 88.6Z" fill="#58595B"/>
<path d="M381.5 50.6V112.4H361.7V104.8C355.8 111 348.9 114.1 341 114.1C331.9 114.1 324.4 111.4 318.7 105.9C313 100.4 310.1 92.3 310.1 81.6C310.1 74.8 311.5 68.8 314.3 63.7C317.1 58.6 320.8 54.6 325.4 51.7C330 48.9 335 47.5 340.3 47.5C345.8 47.5 350.1 48.3 353.3 50C356.5 51.7 359.3 54 361.8 57L363.1 50.6H381.5ZM361.7 88.6V73.5C360.6 70.5 358.6 68.1 355.8 66.3C353 64.5 349.7 63.6 346 63.6C341.7 63.6 338 65.2 334.9 68.4C331.8 71.6 330.3 75.7 330.3 80.6C330.3 83.8 331.1 86.8 332.6 89.4C334.1 92.1 336.1 94.2 338.6 95.7C341.1 97.2 343.8 98 346.7 98C353.6 98 358.6 94.9 361.7 88.6Z" fill="#58595B"/>
<path d="M306.2 50.6L271.1 113.7H270.5L233.4 50.6H256.9L271.4 80L284.1 50.6H306.2Z" fill="#58595B"/>
<path d="M221.9 50.6V112.4H202.1V104.8C196.2 111 189.3 114.1 181.4 114.1C172.3 114.1 164.8 111.4 159.1 105.9C153.4 100.4 150.5 92.3 150.5 81.6C150.5 74.8 151.9 68.8 154.7 63.7C157.5 58.6 161.2 54.6 165.8 51.7C170.4 48.9 175.4 47.5 180.7 47.5C186.2 47.5 190.5 48.3 193.7 50C196.9 51.7 199.7 54 202.2 57L203.5 50.6H221.9ZM202.1 88.6V73.5C201 70.5 199 68.1 196.2 66.3C193.4 64.5 190.1 63.6 186.4 63.6C182.1 63.6 178.4 65.2 175.3 68.4C172.2 71.6 170.7 75.7 170.7 80.6C170.7 83.8 171.5 86.8 173 89.4C174.5 92.1 176.5 94.2 179 95.7C181.5 97.2 184.2 98 187.1 98C194 98 199 94.9 202.1 88.6Z" fill="#58595B"/>
<path d="M126.5 113.5C123 120 118 124.9 111.6 128.4C105.2 131.9 97.8 133.8 89.4 134.1V114.2C103.9 113.4 111.2 105.4 111.2 90.2V8.40002H131.9V90.6C131.8 99.3 130 107 126.5 113.5Z" fill="#58595B"/>
<path d="M1025.9 41.8L1013.7 55.1L984.9 86.6V113.3L1026.6 67.7L1038.8 54.4L1025.9 41.8Z" fill="#58595B"/>
<path d="M1025.9 41.8L983.2 0V25.2L1013.7 55.1L1026.6 67.7L1038.8 54.4L1025.9 41.8Z" fill="black"/>
<path d="M0 54.4L12.2 67.7L53.9 113.3V86.6L25.1 55.1L12.9 41.8L0 54.4Z" fill="#58595B"/>
<path d="M0 54.4L12.2 67.7L25.1 55.1L55.6 25.2V0L12.9 41.8L0 54.4Z" fill="black"/>
</svg>
